# xmcd
#
# Track frame offsets:
#	150
#	18294
#	36828
#	48564
#	62481
#	76033
#	89746
#	102552
#	114675
#	130175
#	142878
#	158432
#	172717
#	184322
#	202059
#
# Disc length: 2830 seconds
#
# Revision: 2
# Processed by: cddbd v1.5.2PL0 Copyright (c) Steve Scherf et al.
# Submitted via: EZCDAudioConverter 6.0.0.1
#
DISCID=c30b0c0f
DTITLE=Various Artist - Cash Only A Tribute To Johnny Cash
DYEAR=2002
DGENRE=Unknown
TTITLE0=Honey B and T-Bones - I Walk The Line
TTITLE1=Kari Tapio - Ring Of Fire
TTITLE2=Whistle Bait - Understand Your Man
TTITLE3=Anssi Kela - Give My Love To Rose
TTITLE4=Tuomari Nurmio and Korkein Oikeus - Belshazzar
TTITLE5=Rock-Ola and The Freewheelers - Mean Eyed Cat
TTITLE6=Aikka Hakala - Home Of The Blues
TTITLE7=Jussi Syren and The Groundbreakers - Big River
TTITLE8=Dave Lindholm and Keystone Cops - Folsom Prison Blues
TTITLE9=Knucklebone Oscar - Cocaine Blues
TTITLE10=Eero Raittinen - The Long Black Veil
TTITLE11=Erja Lyytinen and Dave's Special With Dallas Wayne - Jackson
TTITLE12=Red Hot - I Still Miss Someone
TTITLE13=Flaming Balls - Walls Of Prison
TTITLE14=Pepe Ahlqvist and Jarkka Rissanen - Walking The Blues
EXTD=
EXTT0=
EXTT1=
EXTT2=
EXTT3=
EXTT4=
EXTT5=
EXTT6=
EXTT7=
EXTT8=
EXTT9=
EXTT10=
EXTT11=
EXTT12=
EXTT13=
EXTT14=
PLAYORDER=
